<svg width="51" height="52" viewBox="0 0 51 52" fill="none" xmlns="http://www.w3.org/2000/svg">
<path d="M9.03125 0.445312H41.9687C46.9625 0.445312 51 4.58634 51 9.70813V42.1825C51 47.3043 46.9625 51.4453 41.9687 51.4453H9.03125C4.0375 51.4453 0 47.3043 0 42.1825V9.70813C0 4.58634 4.0375 0.445312 9.03125 0.445312Z" fill="#330000"/>
<path d="M24.7148 31.0449H16.8098L15.1948 36.1667C15.1523 36.3628 14.9823 36.4936 14.7911 36.4718H10.7961C10.5623 36.4718 10.4986 36.341 10.5623 36.0795L17.4048 15.8756C17.4686 15.6577 17.5323 15.4179 17.6173 15.1564C17.7023 14.6987 17.7448 14.2192 17.7448 13.7397C17.7236 13.6308 17.8086 13.5218 17.9148 13.5H23.4186C23.5886 13.5 23.6736 13.5654 23.6948 13.6744L31.4511 36.1231C31.5148 36.3628 31.4511 36.4718 31.2386 36.4718H26.7973C26.6486 36.4936 26.4998 36.3846 26.4573 36.232L24.7148 31.0449ZM18.0423 26.6205H23.4398C23.3123 26.1628 23.1423 25.6179 22.9511 25.0513C22.7598 24.4628 22.5686 23.8308 22.3773 23.1769C22.1648 22.5013 21.9736 21.8474 21.7611 21.1718C21.5486 20.4962 21.3573 19.8641 21.1873 19.232C21.0173 18.6218 20.8686 18.0551 20.7198 17.5321H20.6773C20.4861 18.4692 20.2523 19.4064 19.9548 20.3436C19.6361 21.3897 19.3173 22.4795 18.9773 23.5692C18.6798 24.6808 18.3611 25.7051 18.0423 26.6205Z" fill="#FF9A00"/>
<path d="M36.0837 17.2273C35.3824 17.2491 34.7024 16.9658 34.1924 16.4645C33.7037 15.9197 33.4487 15.2004 33.4699 14.4594C33.4487 13.7184 33.7249 13.0209 34.2349 12.5197C34.7449 12.0184 35.4249 11.7568 36.1262 11.7568C36.9549 11.7568 37.5924 12.0184 38.0599 12.5197C38.5274 13.0427 38.7824 13.7402 38.7612 14.4594C38.7824 15.2004 38.5274 15.9197 38.0174 16.4645C37.5287 16.9876 36.8062 17.2709 36.0837 17.2273ZM33.7037 36.1453V19.3632C33.7037 19.1453 33.7887 19.0581 33.9799 19.0581H38.1874C38.3787 19.0581 38.4637 19.1671 38.4637 19.3632V36.1453C38.4637 36.385 38.3787 36.494 38.1874 36.494H34.0224C33.8099 36.494 33.7037 36.3632 33.7037 36.1453Z" fill="#FF9A00"/>
</svg>
