<svg width="51" height="51" viewBox="0 0 51 51" fill="none" xmlns="http://www.w3.org/2000/svg">
<g clip-path="url(#clip0_921_866)">
<path d="M24.9784 18.736L24.9779 18.7366C22.7051 21.1013 21.1813 24.4567 21.0065 28.2903C20.8303 32.2249 22.1143 35.8657 24.3501 38.5514C26.6246 41.2803 29.8368 42.9602 33.399 42.9602C36.9605 42.9602 40.166 41.281 42.4426 38.5517L24.9784 18.736ZM24.9784 18.736C27.2058 16.4149 30.1783 15.0195 33.399 15.0195C36.616 15.0195 39.5889 16.4147 41.8183 18.7363L41.8184 18.7363M24.9784 18.736L41.8184 18.7363M41.8184 18.7363C44.0894 21.101 45.6136 24.4569 45.79 28.2863M41.8184 18.7363L45.79 28.2863M45.79 28.2863C45.9641 32.2247 44.6772 35.8652 42.4434 38.5507L45.79 28.2863Z" fill="white" stroke="black" stroke-width="2"/>
<path d="M29.4312 24.0658L29.4308 24.0663C28.3482 25.1927 27.6129 26.8017 27.5285 28.6525L29.4312 24.0658ZM29.4312 24.0658C30.4918 22.9607 31.8938 22.3086 33.4008 22.3086C34.9056 22.3086 36.3079 22.9606 37.3695 24.066L37.3696 24.0661M29.4312 24.0658L37.3696 24.0661M37.3696 24.0661C38.4515 25.1926 39.1867 26.8017 39.272 28.6507M37.3696 24.0661L39.272 28.6507M39.272 28.6507C39.3563 30.5525 38.7346 32.3012 37.6672 33.5842C36.5805 34.8871 35.0673 35.6714 33.4008 35.6714C31.7335 35.6714 30.2169 34.8864 29.1315 33.5841C28.0638 32.3015 27.4435 30.5529 27.5285 28.6527L39.272 28.6507Z" fill="#265787" stroke="black" stroke-width="2"/>
<path d="M10.9839 16.3862L20.1423 16.3643L22.6658 16.3583L20.8315 18.0912L2.5129 35.3971L2.50505 35.4045L2.49705 35.4118L2.47575 35.4309L2.46124 35.4439C2.45732 35.4475 2.45517 35.4495 2.45434 35.4502C2.45407 35.4505 2.45393 35.4506 2.45393 35.4506L2.44901 35.4555L2.4419 35.4622C1.73543 36.128 1.2619 37.0237 1.08123 37.9244C0.899428 38.8307 1.02743 39.6591 1.40189 40.2487L1.40237 40.2494C1.76578 40.8228 2.30599 41.0933 2.91872 41.0944C3.55352 41.0955 4.33228 40.8005 5.04995 40.0878C5.05066 40.0871 5.05137 40.0864 5.05208 40.0857L15.0451 30.02L17.053 27.9975L16.7491 30.8311L16.7491 30.8312L16.749 30.8312L16.749 30.8316L16.7487 30.834L16.7477 30.8443L16.7433 30.8863C16.7395 30.9233 16.7341 30.9776 16.7276 31.0455C16.7145 31.1815 16.6971 31.3711 16.6802 31.5852C16.6455 32.0232 16.6154 32.5274 16.6206 32.8855C16.6312 33.6126 16.8296 35.1256 17.132 36.306L17.1325 36.3078C17.7712 38.8194 18.8524 41.1356 20.3526 43.1732L20.353 43.1739C21.8924 45.2682 23.7789 46.9392 25.9486 48.1227C28.2269 49.3645 30.6876 49.9943 33.2444 49.9892H33.2446C35.796 49.9848 38.2573 49.3429 40.537 48.0909L10.9839 16.3862ZM10.9839 16.3862L9.88629 16.3812C9.30397 16.3786 8.87665 16.1429 8.61371 15.8124C8.34806 15.4784 8.19972 14.9826 8.31415 14.3741L8.31442 14.3727C8.54775 13.1222 9.75663 12.1289 10.9341 12.1268C10.9343 12.1268 10.9345 12.1268 10.9347 12.1268L10.9604 12.1268L10.9617 12.1268L31.2148 12.1003L33.6231 12.0972L31.9209 10.3935L25.8995 4.36696L25.9016 4.36421L25.2833 3.74023C24.703 3.1547 24.7125 2.16853 25.4864 1.50201C26.2815 0.817447 27.4588 0.860031 28.0996 1.46557L28.1174 1.48242C28.1247 1.4896 28.1342 1.49877 28.1452 1.50909L43.3707 15.8979L44.0656 16.5611C45.5599 17.9874 46.8196 19.6845 47.7993 21.6295L47.8001 21.6313C48.8715 23.7482 49.5699 26.075 49.8571 28.5627L49.8572 28.5629C50.0038 29.8302 50.0376 31.1137 49.9577 32.3904C49.8762 33.6815 49.6729 34.9694 49.3508 36.2397L10.9839 16.3862ZM50.3198 36.4868C50.6571 35.1571 50.8702 33.8076 50.9557 32.4534C51.0393 31.1175 51.0041 29.7744 50.8505 28.4479L41.0185 48.9674C43.324 47.6975 45.3182 45.9184 46.9367 43.7119C48.5153 41.5574 49.6486 39.1185 50.3198 36.4868ZM50.3198 36.4868L49.3505 36.241C49.3506 36.2406 49.3507 36.2402 49.3508 36.2398L50.3198 36.4868ZM33.2491 42.5076H33.2487C29.7956 42.5149 26.632 40.9063 24.3971 38.1095L33.2491 42.5076ZM33.2491 42.5076C36.6975 42.499 39.8595 40.8761 42.0928 38.0756C43.1834 36.7081 43.9782 35.1456 44.47 33.4832L44.47 33.4832C44.9526 31.8516 45.1381 30.1146 45.016 28.3918C44.8971 26.7134 44.4923 25.0783 43.8224 23.5921M33.2491 42.5076L22.0166 33.5257M22.0166 33.5257L22.0165 33.5254C21.5335 31.8928 21.3487 30.1544 21.4725 28.4306C21.5895 26.7304 22.0011 25.105 22.6608 23.63C23.3097 22.1787 24.2053 20.8626 25.3151 19.747L25.3159 19.7462C27.4942 17.5614 30.2935 16.3571 33.2401 16.3523C36.1896 16.3474 38.9878 17.5407 41.1693 19.7194L41.1707 19.7208C42.2784 20.8315 43.1734 22.1428 43.8224 23.5921M22.0166 33.5257C22.5078 35.1837 23.3053 36.7463 24.3963 38.1084L22.0166 33.5257ZM43.8224 23.5921C43.8226 23.5924 43.8228 23.5928 43.8229 23.5932L42.9103 24.0019L43.8219 23.5909C43.8221 23.5913 43.8223 23.5917 43.8224 23.5921ZM46.9349 43.7106L46.1303 43.1205C46.1302 43.1206 46.1301 43.1207 46.13 43.1209L46.9349 43.7106Z" fill="#EA7600" stroke="black" stroke-width="2"/>
</g>
<defs>
<clipPath id="clip0_921_866">
<rect width="51" height="51" fill="white"/>
</clipPath>
</defs>
</svg>
