<svg width="171" height="170" viewBox="0 0 171 170" fill="none" xmlns="http://www.w3.org/2000/svg">
<path opacity="0.18" d="M32.456 94.0201L18.9061 80.605L22.5816 78.2633C25.0202 76.7099 28.2275 77.0105 30.2151 78.9783L34.5406 83.2607C36.5282 85.2286 36.7327 88.3059 35.027 90.5849L32.456 94.0201Z" stroke="#351915" stroke-width="4" stroke-miterlimit="10" stroke-linecap="round" stroke-linejoin="round"/>
<path d="M30.2109 94.7191L16.661 81.3041L20.3365 78.9625C22.7751 77.4091 25.9823 77.7096 27.97 79.6775L32.2954 83.9599C34.283 85.9277 34.4875 89.005 32.7818 91.2839L30.2109 94.7191Z" fill="#FEA38E"/>
<path d="M30.2109 94.7191L16.661 81.3041L20.3365 78.9625C22.7751 77.4091 25.9823 77.7096 27.97 79.6775L32.2954 83.9599C34.283 85.9277 34.4875 89.005 32.7818 91.2839L30.2109 94.7191Z" stroke="#102D3B" stroke-width="4" stroke-miterlimit="10" stroke-linecap="round" stroke-linejoin="round"/>
<g opacity="0.4">
<path opacity="0.4" d="M67.3065 139.115C82.388 116.589 98.2271 98.1374 113.31 82.2239C116.338 79.0292 120.694 77.4311 125.047 77.6533C128.371 77.8229 131.584 76.8866 133.624 74.9985C137.352 71.5535 137.9 64.2649 134.067 59.2723C129.529 53.7245 124.382 48.6291 118.742 44.1001C113.658 40.2641 106.025 40.5398 102.3 43.9868C100.258 45.8736 99.1709 48.9133 99.235 52.0975C99.3185 56.2682 97.5005 60.3786 94.0603 63.1652C76.9232 77.046 57.1103 91.5623 33.066 105.216" stroke="#2B5621" stroke-width="4" stroke-miterlimit="10" stroke-linecap="round" stroke-linejoin="round"/>
<path opacity="0.4" d="M126.618 126.439L48.3295 48.9316L15.7275 89.515L32.8191 106.436L31.704 107.467C29.433 109.567 28.1637 111.836 30.3082 113.959L58.0804 141.454C60.2249 143.577 62.6375 142.441 64.9085 140.341L66.0236 139.31L83.1152 156.231L126.618 126.439Z" fill="#2B5621" stroke="#2B5621" stroke-width="4" stroke-miterlimit="10" stroke-linecap="round" stroke-linejoin="round"/>
</g>
<path d="M127.091 117.701L48.8448 40.2334L16.2031 80.849L32.1194 96.607L31.0032 97.6392C28.73 99.7412 28.6248 103.165 30.7681 105.287L58.5255 132.769C60.6688 134.891 64.249 134.907 66.5222 132.805L67.6384 131.773L83.5547 147.531L127.091 117.701Z" fill="#FEA38E"/>
<g opacity="0.18">
<path opacity="0.18" d="M70.3112 134.688C80.9827 119.222 91.979 105.722 102.774 93.6524M81.7655 72.8534C67.5662 83.699 51.5692 94.7168 33.0669 105.224L81.7655 72.8534Z" stroke="#351915" stroke-width="4" stroke-miterlimit="10" stroke-linecap="round" stroke-linejoin="round"/>
</g>
<path opacity="0.18" d="M61.381 131.216L34.7709 104.871C37.477 104.857 39.8547 104.247 41.903 103.387C43.8875 102.555 46.0961 102.859 47.4909 104.24L62.4739 119.074C63.8687 120.455 64.1112 122.578 63.174 124.447C62.2065 126.376 61.4871 128.629 61.381 131.216ZM85.0517 146.093L71.5018 132.678L75.1773 130.337C77.6159 128.783 80.8231 129.084 82.8108 131.052L87.1362 135.334C89.1238 137.302 89.3283 140.379 87.6226 142.658L85.0517 146.093Z" stroke="#351915" stroke-width="4" stroke-miterlimit="10" stroke-linecap="round" stroke-linejoin="round"/>
<path d="M67.7444 130.417C82.8397 107.886 98.6891 89.429 113.781 73.5092C116.811 70.3133 121.166 68.7125 125.519 68.9315C128.841 69.0986 132.054 68.1603 134.095 66.2713C137.825 62.8246 138.378 55.5377 134.55 50.5494C130.018 45.0064 124.876 39.9161 119.241 35.3925C114.161 31.5613 106.53 31.8425 102.804 35.2911C100.761 37.1788 99.6713 40.2185 99.7329 43.4017C99.8131 47.5712 97.9924 51.6816 94.5509 54.4699C77.4074 68.359 57.5882 82.8854 33.5395 96.5522" stroke="#102D3B" stroke-width="4" stroke-miterlimit="10" stroke-linecap="round" stroke-linejoin="round"/>
<path d="M83.4882 147.466L69.9384 134.051L73.6139 131.71C76.0524 130.156 79.2597 130.457 81.2473 132.425L85.5727 136.707C87.5603 138.675 87.7648 141.752 86.0591 144.031L83.4882 147.466Z" fill="#FEA38E"/>
<path d="M83.4882 147.466L69.9384 134.051L73.6139 131.71C76.0524 130.156 79.2597 130.457 81.2473 132.425L85.5727 136.707C87.5603 138.675 87.7648 141.752 86.0591 144.031L83.4882 147.466Z" stroke="#102D3B" stroke-width="4" stroke-miterlimit="10" stroke-linecap="round" stroke-linejoin="round"/>
<path d="M102.778 93.6305L48.8448 40.2334L16.2032 80.8489L33.2856 97.7614L32.1694 98.7936C29.8962 100.896 28.6248 103.165 30.7681 105.287L58.5255 132.769C60.6688 134.891 63.0828 133.752 65.356 131.65L66.4722 130.618L83.5547 147.53L127.091 117.702L102.778 93.6305Z" stroke="#102D3B" stroke-width="4" stroke-miterlimit="10" stroke-linecap="round" stroke-linejoin="round"/>
<path d="M57.6552 131.908L31.0452 105.562C33.7512 105.549 36.1289 104.938 38.1773 104.079C40.1617 103.246 42.3703 103.551 43.7651 104.932L58.7481 119.766C60.1429 121.147 60.3854 123.269 59.4482 125.138C58.4807 127.067 57.7613 129.32 57.6552 131.908Z" fill="#FEA38E"/>
<path d="M57.6552 131.908L31.0452 105.562C33.7512 105.549 36.1289 104.938 38.1773 104.079C40.1617 103.246 42.3703 103.551 43.7651 104.932L58.7481 119.766C60.1429 121.147 60.3854 123.269 59.4482 125.138C58.4807 127.067 57.7613 129.32 57.6552 131.908Z" stroke="#102D3B" stroke-width="4" stroke-miterlimit="10" stroke-linecap="round" stroke-linejoin="round"/>
</svg>
