<svg width="104" height="152" viewBox="0 0 104 152" fill="none" xmlns="http://www.w3.org/2000/svg">
<g opacity="0.3">
<path opacity="0.3" d="M26.7397 148.446L7.42037 133.775C4.21926 131.344 3.51003 126.661 5.83554 123.316L69.467 31.7737C71.7925 28.4278 76.2728 27.6865 79.4735 30.1172L98.7928 44.7883C101.994 47.2189 102.703 51.9019 100.378 55.2473L36.7466 146.789C34.4207 150.135 29.9408 150.877 26.7397 148.446Z" fill="#2D2D2D" stroke="#2D2D2D" stroke-width="4" stroke-miterlimit="10" stroke-linecap="round" stroke-linejoin="round"/>
<path opacity="0.3" d="M35.5638 136.906H11.6838C7.72726 136.906 4.51978 133.554 4.51978 129.418V16.2663C4.51978 12.1309 7.72726 8.77832 11.6838 8.77832H35.5638C39.5203 8.77832 42.7278 12.1309 42.7278 16.2663V129.418C42.7278 133.554 39.5203 136.906 35.5638 136.906Z" fill="#2D2D2D" stroke="#2D2D2D" stroke-width="4" stroke-miterlimit="10" stroke-linecap="round" stroke-linejoin="round"/>
<path opacity="0.3" d="M32.6516 143.222L9.69657 136.342C5.89328 135.202 3.69433 131.056 4.78485 127.08L34.6241 18.3116C35.7146 14.3363 39.6819 12.0379 43.4852 13.1777L66.4402 20.0575C70.2435 21.1974 72.4424 25.3441 71.3519 29.3194L41.5127 138.088C40.4221 142.063 36.4549 144.362 32.6516 143.222Z" fill="#2D2D2D" stroke="#2D2D2D" stroke-width="4" stroke-miterlimit="10" stroke-linecap="round" stroke-linejoin="round"/>
</g>
<path d="M24.7497 141.79L5.43039 127.119C2.22927 124.688 1.52004 120.005 3.84555 116.659L67.477 25.1174C69.8025 21.7716 74.2828 21.0302 77.4835 23.4609L96.8029 38.132C100.004 40.5627 100.713 45.2456 98.3877 48.5911L34.7566 140.133C32.4307 143.479 27.9508 144.22 24.7497 141.79Z" fill="white"/>
<path d="M24.7497 141.79L5.43039 127.119C2.22927 124.688 1.52004 120.005 3.84555 116.659L67.477 25.1174C69.8025 21.7716 74.2828 21.0302 77.4835 23.4609L96.8029 38.132C100.004 40.5627 100.713 45.2456 98.3877 48.5911L34.7566 140.133C32.4307 143.479 27.9508 144.22 24.7497 141.79Z" stroke="#330E00" stroke-width="4" stroke-miterlimit="10" stroke-linecap="round" stroke-linejoin="round"/>
<path d="M56.279 109.17L25.3679 85.6966L67.4767 25.1174C69.8023 21.7716 74.2826 21.0302 77.4833 23.4609L96.8026 38.132C100.004 40.5627 100.713 45.2456 98.3874 48.5911L56.279 109.17Z" stroke="#330E00" stroke-width="4" stroke-miterlimit="10" stroke-linecap="round" stroke-linejoin="round"/>
<path d="M87.1586 64.7456L56.2474 41.272L67.4766 25.1174C69.8021 21.7716 74.2824 21.0302 77.4832 23.4609L96.8025 38.132C100.004 40.5627 100.713 45.2456 98.3873 48.5911L87.1586 64.7456Z" fill="#8C6239"/>
<path d="M87.1586 64.7456L56.2474 41.272L67.4766 25.1174C69.8021 21.7716 74.2824 21.0302 77.4832 23.4609L96.8025 38.132C100.004 40.5627 100.713 45.2456 98.3873 48.5911L87.1586 64.7456Z" stroke="#330E00" stroke-width="4" stroke-miterlimit="10" stroke-linecap="round" stroke-linejoin="round"/>
<path d="M71.7104 86.9603L40.8003 63.4854L25.3596 85.6972L56.2697 109.172L71.7104 86.9603Z" fill="#42210B"/>
<path d="M87.1505 64.7484L56.2404 41.2734L40.7997 63.4853L71.7098 86.9602L87.1505 64.7484Z" fill="#603813"/>
<path d="M87.1505 64.7484L56.2404 41.2734L40.7997 63.4853L71.7098 86.9602L87.1505 64.7484Z" stroke="#330E00" stroke-width="4" stroke-miterlimit="10" stroke-linecap="round" stroke-linejoin="round"/>
<path d="M71.7104 86.9603L40.8003 63.4854L25.3596 85.6972L56.2697 109.172L71.7104 86.9603Z" stroke="#330E00" stroke-width="4" stroke-miterlimit="10" stroke-linecap="round" stroke-linejoin="round"/>
<path d="M12.5284 124.01C14.2868 124.01 15.7123 122.52 15.7123 120.682C15.7123 118.844 14.2868 117.354 12.5284 117.354C10.7699 117.354 9.34436 118.844 9.34436 120.682C9.34436 122.52 10.7699 124.01 12.5284 124.01Z" stroke="#330E00" stroke-width="4" stroke-miterlimit="10" stroke-linecap="round" stroke-linejoin="round"/>
<path opacity="0.3" d="M67.2363 15.0654L44.2812 8.18554C40.4779 7.0457 36.5106 9.34411 35.4201 13.3194L5.58087 122.088C4.49035 126.063 6.6893 130.21 10.4926 131.35L31.4306 130.096C31.6156 130.152 33.3883 130.211 33.5738 130.25H35.4774L38.5341 129.906C41.7885 129.539 44.5021 127.14 45.388 123.846L72.1484 24.3268C73.2389 20.3519 71.0395 16.2052 67.2363 15.0654Z" fill="#2D2D2D" stroke="#2D2D2D" stroke-width="4" stroke-miterlimit="10" stroke-linecap="round" stroke-linejoin="round"/>
<path d="M30.6616 136.567L7.70658 129.687C3.90329 128.547 1.70434 124.4 2.79486 120.425L32.6341 11.6563C33.7246 7.68101 37.6919 5.38262 41.4952 6.52246L64.4502 13.4023C68.2535 14.5421 70.4525 18.6888 69.3619 22.6641L39.5227 131.432C38.4322 135.408 34.4649 137.706 30.6616 136.567Z" fill="white"/>
<path d="M30.6616 136.567L7.70658 129.687C3.90329 128.547 1.70434 124.4 2.79486 120.425L32.6341 11.6563C33.7246 7.68101 37.6919 5.38262 41.4952 6.52246L64.4502 13.4023C68.2535 14.5421 70.4525 18.6888 69.3619 22.6641L39.5227 131.432C38.4322 135.408 34.4649 137.706 30.6616 136.567Z" stroke="#330E00" stroke-width="4" stroke-miterlimit="10" stroke-linecap="round" stroke-linejoin="round"/>
<path d="M64.0964 41.8578L27.3685 30.85L32.6345 11.6553C33.725 7.68004 37.6923 5.38164 41.4955 6.52148L64.4506 13.4013C68.2539 14.5411 70.4529 18.6878 69.3623 22.6631L64.0964 41.8578Z" fill="#BD3F3A"/>
<path d="M49.6155 94.6423L12.8877 83.6346L32.6345 11.6553C33.725 7.68004 37.6923 5.38164 41.4955 6.52148L64.4506 13.4013C68.2539 14.5411 70.4528 18.6878 69.3623 22.6631L49.6155 94.6423Z" stroke="#330E00" stroke-width="4" stroke-miterlimit="10" stroke-linecap="round" stroke-linejoin="round"/>
<path d="M64.106 41.8467L27.3776 30.8408L20.1384 57.2336L56.8669 68.2394L64.106 41.8467Z" fill="#A33500"/>
<path d="M64.106 41.8467L27.3776 30.8408L20.1384 57.2336L56.8669 68.2394L64.106 41.8467Z" stroke="#330E00" stroke-width="4" stroke-miterlimit="10" stroke-linecap="round" stroke-linejoin="round"/>
<path d="M56.8665 68.2392L20.1381 57.2334L12.8989 83.6262L49.6274 94.632L56.8665 68.2392Z" fill="#6D2300"/>
<path d="M56.8665 68.2392L20.1381 57.2334L12.8989 83.6262L49.6274 94.632L56.8665 68.2392Z" stroke="#330E00" stroke-width="4" stroke-miterlimit="10" stroke-linecap="round" stroke-linejoin="round"/>
<path d="M12.2704 124.427C14.0289 124.427 15.4544 122.937 15.4544 121.099C15.4544 119.261 14.0289 117.771 12.2704 117.771C10.5119 117.771 9.08643 119.261 9.08643 121.099C9.08643 122.937 10.5119 124.427 12.2704 124.427Z" stroke="#330E00" stroke-width="4" stroke-miterlimit="10" stroke-linecap="round" stroke-linejoin="round"/>
<path opacity="0.3" d="M36.7578 131.914H12.8778C8.92123 131.914 5.71375 128.562 5.71375 124.426V11.2741C5.71375 7.13868 8.92123 3.78613 12.8778 3.78613H36.7578C40.7143 3.78613 43.9218 7.13868 43.9218 11.2741V124.426C43.9218 128.562 40.7143 131.914 36.7578 131.914Z" fill="#2D2D2D" stroke="#2D2D2D" stroke-width="4" stroke-miterlimit="10" stroke-linecap="round" stroke-linejoin="round"/>
<path d="M33.5738 130.25H9.69379C5.73727 130.25 2.52979 126.898 2.52979 122.762V9.61007C2.52979 5.47461 5.73727 2.12207 9.69379 2.12207H33.5738C37.5303 2.12207 40.7378 5.47461 40.7378 9.61007V122.762C40.7378 126.898 37.5303 130.25 33.5738 130.25Z" fill="white"/>
<path d="M33.5738 130.25H9.69379C5.73727 130.25 2.52979 126.898 2.52979 122.762V9.61007C2.52979 5.47461 5.73727 2.12207 9.69379 2.12207H33.5738C37.5303 2.12207 40.7378 5.47461 40.7378 9.61007V122.762C40.7378 126.898 37.5303 130.25 33.5738 130.25Z" stroke="#330E00" stroke-width="4" stroke-miterlimit="10" stroke-linecap="round" stroke-linejoin="round"/>
<path d="M40.7378 84.4901H2.52979V9.61007C2.52979 5.47461 5.73727 2.12207 9.69379 2.12207H33.5738C37.5303 2.12207 40.7378 5.47461 40.7378 9.61007V84.4901Z" stroke="#330E00" stroke-width="4" stroke-miterlimit="10" stroke-linecap="round" stroke-linejoin="round"/>
<path d="M40.7378 29.5781H2.52979V9.61007C2.52979 5.47461 5.73727 2.12207 9.69379 2.12207H33.5738C37.5303 2.12207 40.7378 5.47461 40.7378 9.61007V29.5781Z" fill="#FF9999"/>
<path d="M40.7378 29.5781H2.52979V9.61007C2.52979 5.47461 5.73727 2.12207 9.69379 2.12207H33.5738C37.5303 2.12207 40.7378 5.47461 40.7378 9.61007V29.5781Z" stroke="#330E00" stroke-width="4" stroke-miterlimit="10" stroke-linecap="round" stroke-linejoin="round"/>
<path d="M40.7378 29.5781H2.52979V57.0341H40.7378V29.5781Z" fill="#FF0000"/>
<path d="M40.7378 29.5781H2.52979V57.0341H40.7378V29.5781Z" fill="#FF3333" stroke="#330E00" stroke-width="4" stroke-miterlimit="10" stroke-linecap="round" stroke-linejoin="round"/>
<path d="M40.7378 57.0342H2.52979V84.4902H40.7378V57.0342Z" fill="#BF0000"/>
<path d="M40.7378 57.0342H2.52979V84.4902H40.7378V57.0342Z" stroke="#330E00" stroke-width="4" stroke-miterlimit="10" stroke-linecap="round" stroke-linejoin="round"/>
<path d="M11.8163 124.01C13.5748 124.01 15.0003 122.52 15.0003 120.682C15.0003 118.844 13.5748 117.354 11.8163 117.354C10.0579 117.354 8.63232 118.844 8.63232 120.682C8.63232 122.52 10.0579 124.01 11.8163 124.01Z" stroke="#330E00" stroke-width="4" stroke-miterlimit="10" stroke-linecap="round" stroke-linejoin="round"/>
<path d="M8.16507 91.3993H7.48767V92.6077H7.15137V89.7727H8.16507C8.94316 89.7727 9.29859 90.1217 9.29859 90.5881C9.29859 91.0461 8.95272 91.3993 8.16507 91.3993ZM8.16507 91.1559C8.73183 91.1559 8.95272 90.9367 8.95272 90.5881C8.95272 90.2228 8.73143 90.0119 8.16507 90.0119H7.48767V91.1559H8.16507ZM11.8728 91.9346H10.3453L10.0524 92.6077H9.69659L10.9216 89.8089H11.3013L12.5212 92.6077H12.1654L11.8728 91.9346ZM11.1091 90.1658L10.4464 91.6996H11.7721L11.1091 90.1658ZM15.6578 89.7723V92.6073H15.3215L13.4625 90.2224V92.6073H13.1261V89.7723H13.4625L15.3215 92.1535V89.7723H15.6578ZM16.2485 89.7723H18.4534V90.0073H17.5213V92.6073H17.1849V90.0073H16.2481V89.7723H16.2485ZM20.5616 92.636C19.6199 92.636 18.8991 92.0395 18.8991 91.1879C18.8991 90.3405 19.6199 89.7402 20.5616 89.7402C21.5076 89.7402 22.2236 90.3405 22.2236 91.1879C22.2236 92.0399 21.5076 92.636 20.5616 92.636ZM20.5616 92.3885C21.3058 92.3885 21.8778 91.9301 21.8778 91.1875C21.8778 90.4454 21.3058 89.9911 20.5616 89.9911C19.8169 89.9911 19.245 90.4454 19.245 91.1875C19.2454 91.9305 19.8169 92.3885 20.5616 92.3885ZM25.4367 89.7723V92.6073H25.1004L23.2413 90.2224V92.6073H22.905V89.7723H23.2413L25.1004 92.1535V89.7723H25.4367ZM28.0209 90.0036H26.6036V91.0623H27.8764V91.2973H26.6036V92.3723H28.0209V92.6073H26.2677V89.7681H28.0209V90.0036Z" fill="#330E00"/>
<path d="M28.8925 89.7227H29.5145V89.8217H29.2638V90.6562H29.144V89.8217H28.8921V89.7227H28.8925ZM29.6801 89.7297H29.8091L30.1466 90.4956L30.4841 89.7297H30.6118V90.6566H30.4921V89.9656L30.1888 90.6566H30.1044L29.7999 89.9644V90.6566H29.6797V89.7297H29.6801Z" fill="#330E00"/>
</svg>
