<svg width="109" height="139" viewBox="0 0 109 139" fill="none" xmlns="http://www.w3.org/2000/svg">
<path opacity="0.3" d="M34.4815 68.7318C28.605 60.0541 19.2373 56.4261 13.5574 60.6282C7.87758 64.8302 8.03718 75.2709 13.9133 83.9487C19.0463 91.5286 26.8427 95.2547 32.5186 93.2758L56.9984 134.092C59.0847 137.509 62.328 138.032 64.7566 136.234C67.1852 134.438 67.7921 131.066 65.4025 127.874L36.7119 90.1733C40.3842 85.2362 39.6141 76.3118 34.4815 68.7318Z" fill="#2D2D2D" stroke="#2D2D2D" stroke-width="3" stroke-miterlimit="10" stroke-linecap="round" stroke-linejoin="round"/>
<path opacity="0.3" d="M56.8809 111.715C84.5769 111.715 107.029 88.2474 107.029 59.2988C107.029 30.3503 84.5769 6.88281 56.8809 6.88281C29.1849 6.88281 6.73291 30.3503 6.73291 59.2988C6.73291 88.2474 29.1849 111.715 56.8809 111.715Z" fill="#2D2D2D" stroke="#2D2D2D" stroke-width="3" stroke-miterlimit="10" stroke-linecap="round" stroke-linejoin="round"/>
<path d="M52.1049 106.723C79.8009 106.723 102.253 83.2552 102.253 54.3066C102.253 25.3581 79.8009 1.89063 52.1049 1.89062C24.4089 1.89062 1.95691 25.3581 1.95691 54.3066C1.95691 83.2552 24.4089 106.723 52.1049 106.723Z" fill="white"/>
<path d="M31.5379 81.0217C35.2102 76.0842 34.4401 67.1597 29.3071 59.5802C23.4306 50.9029 2.86275 66.1193 8.73882 74.7971C13.8718 82.377 21.6683 86.1031 27.3441 84.1242L39.2133 103.915C42.7997 104.976 46.5496 105.63 50.4142 105.827L31.5379 81.0217ZM97.5836 66.3706H84.854V53.0586H97.5836C99.3455 53.0586 100.774 54.5516 100.774 56.3932V63.0363C100.774 64.878 99.3455 66.3706 97.5836 66.3706Z" fill="#C0C0C0" stroke="#C0C0C0" stroke-width="3" stroke-miterlimit="10" stroke-linecap="round" stroke-linejoin="round"/>
<path d="M53.2989 92.5786C70.6639 92.5786 84.7409 77.8649 84.7409 59.7146C84.7409 41.5643 70.6639 26.8506 53.2989 26.8506C35.934 26.8506 21.8569 41.5643 21.8569 59.7146C21.8569 77.8649 35.934 92.5786 53.2989 92.5786Z" fill="#C0C0C0" stroke="#C0C0C0" stroke-width="3" stroke-miterlimit="10" stroke-linecap="round" stroke-linejoin="round"/>
<path d="M52.1049 106.723C79.8009 106.723 102.253 83.2552 102.253 54.3066C102.253 25.3581 79.8009 1.89063 52.1049 1.89062C24.4089 1.89062 1.95691 25.3581 1.95691 54.3066C1.95691 83.2552 24.4089 106.723 52.1049 106.723Z" stroke="#330E00" stroke-width="3" stroke-miterlimit="10" stroke-linecap="round" stroke-linejoin="round"/>
<path d="M28.1135 63.7397C22.237 55.0619 12.8693 51.434 7.1894 55.636C1.50954 59.838 1.66914 70.2788 7.54521 78.9565C12.6782 86.5365 20.4746 90.2626 26.1505 88.2837L50.6303 129.1C52.7166 132.517 55.9599 133.039 58.3885 131.242C60.8171 129.445 61.4241 126.074 59.0345 122.882L30.3438 85.1811C34.0162 80.244 33.2461 71.3196 28.1135 63.7397Z" fill="white"/>
<path d="M30.7936 83.576C31.9613 78.183 29.5777 71.6801 25.9269 65.3581C23.7948 61.6661 21.9102 58.6871 19.0466 56.583C19.0474 67.3549 23.7848 76.749 30.7936 83.576Z" fill="#C0C0C0" stroke="#C0C0C0" stroke-width="3" stroke-miterlimit="10" stroke-linecap="round" stroke-linejoin="round"/>
<path d="M13.1558 78.9689C12.5262 78.255 11.9276 77.485 11.372 76.6642C8.76112 72.8087 7.4736 68.3917 7.61528 64.8398" stroke="#330E00" stroke-width="3" stroke-miterlimit="10" stroke-linecap="round" stroke-linejoin="round"/>
<path d="M28.1135 63.7397C22.237 55.0619 12.8693 51.434 7.1894 55.636C1.50954 59.838 1.66914 70.2788 7.54521 78.9565C12.6782 86.5365 20.4746 90.2626 26.1505 88.2837L50.6303 129.1C52.7166 132.517 55.9599 133.039 58.3885 131.242C60.8171 129.445 61.4241 126.074 59.0345 122.882L30.3438 85.1811C34.0162 80.244 33.2461 71.3196 28.1135 63.7397Z" stroke="#330E00" stroke-width="3" stroke-miterlimit="10" stroke-linecap="round" stroke-linejoin="round"/>
<path d="M96.3895 60.9624H81.0387V47.6504H96.3895C98.1515 47.6504 99.5799 49.1434 99.5799 50.985V57.6282C99.5799 59.4698 98.1515 60.9624 96.3895 60.9624Z" fill="white"/>
<path d="M96.3895 60.9624H81.0387V47.6504H96.3895C98.1515 47.6504 99.5799 49.1434 99.5799 50.985V57.6282C99.5799 59.4698 98.1515 60.9624 96.3895 60.9624Z" stroke="#330E00" stroke-width="3" stroke-miterlimit="10" stroke-linecap="round" stroke-linejoin="round"/>
<path d="M52.1049 87.1704C69.4698 87.1704 83.5469 72.4567 83.5469 54.3064C83.5469 36.1561 69.4698 21.4424 52.1049 21.4424C34.74 21.4424 20.6629 36.1561 20.6629 54.3064C20.6629 72.4567 34.74 87.1704 52.1049 87.1704Z" fill="white"/>
<path d="M52.1049 87.1704C69.4698 87.1704 83.5469 72.4567 83.5469 54.3064C83.5469 36.1561 69.4698 21.4424 52.1049 21.4424C34.74 21.4424 20.6629 36.1561 20.6629 54.3064C20.6629 72.4567 34.74 87.1704 52.1049 87.1704Z" stroke="#330E00" stroke-width="3" stroke-miterlimit="10" stroke-linecap="round" stroke-linejoin="round"/>
<path d="M52.1049 80.6458C66.0221 80.6458 77.3043 68.8535 77.3043 54.3068C77.3043 39.7602 66.0221 27.9678 52.1049 27.9678C38.1877 27.9678 26.9055 39.7602 26.9055 54.3068C26.9055 68.8535 38.1877 80.6458 52.1049 80.6458Z" fill="#330E00"/>
<path d="M53.1783 39.1935C59.3119 40.5089 64.2658 45.2484 66.1236 51.4098M54.6561 33.5264C64.7517 34.8156 72.5971 43.8315 72.5971 54.7265C72.5971 66.5035 63.4304 76.0848 52.163 76.0848C44.2846 76.0848 37.4334 71.4002 34.0245 64.5566L54.6561 33.5264Z" stroke="white" stroke-width="3" stroke-miterlimit="10" stroke-linecap="round"/>
</svg>
