<svg width="51" height="51" viewBox="0 0 51 51" fill="none" xmlns="http://www.w3.org/2000/svg">
<g clip-path="url(#clip0_921_844)">
<path d="M0.617348 18.1387L11.4133 2.14687L25.5 0.503391L39.5869 2.14687L50.3827 18.1384L25.5 50.1116L0.617348 18.1387Z" fill="#FDB300" stroke="#212121"/>
<path d="M10.0092 18.6592L23.2091 47.1675L1.02269 18.6592H10.0092Z" fill="#EB6C00" stroke="#212121"/>
<path d="M49.9773 18.6592L27.7909 47.1676L40.9906 18.6592H49.9773Z" fill="#EB6C00" stroke="#212121"/>
<path d="M39.8887 18.6592L25.4999 49.7353L11.1111 18.6592H39.8887Z" fill="#FDAD00" stroke="#212121"/>
<path d="M24.3122 0.641981L10.9002 16.6956L11.6064 2.12436L24.3122 0.641981Z" fill="#FDD231" stroke="#212121"/>
<path d="M26.6879 0.641978L39.3937 2.12436L40.0996 16.6956L26.6879 0.641978Z" fill="#FDD231" stroke="#212121"/>
<path d="M40.4587 3.43831L50.0592 17.6594H41.1476L40.4587 3.43831Z" fill="#FDAD00" stroke="#212121"/>
<path d="M10.5414 3.43831L9.85234 17.6594H0.940819L10.5414 3.43831Z" fill="#FDAD00" stroke="#212121"/>
<path d="M39.6017 16.9864H11.3976L25.4997 0.107002L39.6017 16.9864Z" fill="#FEEEB7" stroke="#212121"/>
</g>
<defs>
<clipPath id="clip0_921_844">
<rect width="51" height="51" fill="white"/>
</clipPath>
</defs>
</svg>
