<svg width="35" height="52" viewBox="0 0 35 52" fill="none" xmlns="http://www.w3.org/2000/svg">
<path d="M34 26.1973C34 30.6155 30.4183 34.1973 26 34.1973C21.5817 34.1973 18 30.6155 18 26.1973C18 21.779 21.5817 18.1973 26 18.1973C30.4183 18.1973 34 21.779 34 26.1973Z" fill="#19BCFE" stroke="black"/>
<path d="M14.6569 48.8541C13.1566 50.3544 11.1217 51.1973 9 51.1973C6.87827 51.1973 4.84344 50.3544 3.34315 48.8541C1.84285 47.3538 1 45.319 1 43.1973C1 41.0755 1.84285 39.0407 3.34315 37.5404C4.84344 36.0401 6.87827 35.1973 9 35.1973H17V43.1973C17 45.319 16.1571 47.3538 14.6569 48.8541Z" fill="#09CF83" stroke="black"/>
<path d="M17 18.1973V34.1973H9C6.87827 34.1973 4.84344 33.3544 3.34315 31.8541C1.84285 30.3538 1 28.319 1 26.1973C1 24.0755 1.84285 22.0407 3.34315 20.5404C4.84344 19.0401 6.87827 18.1973 9 18.1973H17Z" fill="#A259FF" stroke="black"/>
<path d="M17 1.19727V17.1973H9C6.87827 17.1973 4.84344 16.3544 3.34315 14.8541C1.84285 13.3538 1 11.319 1 9.19727C1 7.07553 1.84285 5.0407 3.34315 3.54041C4.84344 2.04012 6.87827 1.19727 9 1.19727H17Z" fill="#F24E1E" stroke="black"/>
<path d="M26 17.1973H18V1.19727H26C28.1217 1.19727 30.1566 2.04012 31.6569 3.54041C33.1571 5.0407 34 7.07553 34 9.19727C34 11.319 33.1571 13.3538 31.6569 14.8541C30.1566 16.3544 28.1217 17.1973 26 17.1973Z" fill="#FF7262" stroke="black"/>
</svg>
