<svg width="101" height="81" viewBox="0 0 101 81" fill="none" xmlns="http://www.w3.org/2000/svg">
<path d="M84.0385 67.8062L75.6291 42.4323C74.8665 40.1319 76.5313 37.7619 79.3468 37.1389C82.1624 36.5159 85.0632 37.876 85.8257 40.1764L95.5431 69.4976C96.8624 73.4787 93.9818 77.58 89.1092 78.6578C84.2366 79.7357 79.2167 77.3822 77.8975 73.4012L67.055 40.6854C65.3786 35.6274 69.0383 30.4165 75.2292 29.0469C81.42 27.6773 87.7979 30.6673 89.4739 35.7255L99.1733 64.9912M30.8348 38.376L13.2399 16.3672C11.6448 14.3719 12.3315 11.6976 14.7737 10.3943C17.2158 9.09106 20.489 9.65212 22.0842 11.6474L42.4162 37.08C45.1768 40.5332 43.9885 45.1608 39.762 47.4163C35.5355 49.6717 29.8715 48.7009 27.1109 45.2477L4.42488 16.8706C0.917464 12.4833 2.42724 6.60376 7.79713 3.73812C13.167 0.872483 20.3633 2.10601 23.8707 6.49332L44.1644 31.878L30.8348 38.376Z" stroke="#FDFFFF" stroke-width="3" stroke-miterlimit="10" stroke-linecap="round" stroke-linejoin="round"/>
</svg>
