<svg width="25" height="157" viewBox="0 0 25 157" fill="none" xmlns="http://www.w3.org/2000/svg">
<path d="M20.6137 29.7578H3.89771V132.302H20.6137V29.7578Z" fill="#FF1F1F"/>
<path d="M20.6137 29.7578H3.89771V132.302H20.6137V29.7578Z" stroke="#330E00" stroke-width="3" stroke-miterlimit="10" stroke-linecap="round" stroke-linejoin="round"/>
<path d="M15.1694 29.7578H9.34192V132.302H15.1694V29.7578Z" stroke="#330E00" stroke-width="3" stroke-miterlimit="10" stroke-linecap="round" stroke-linejoin="round"/>
<path d="M22.8691 132.235H1.64258V144.715H22.8691V132.235Z" fill="#FDD2A7"/>
<path opacity="0.5" d="M22.8691 132.235H16.6337V144.715H22.8691V132.235Z" fill="#FDD2A7"/>
<path d="M7.34393 132.235H1.64258V144.715H7.34393V132.235Z" fill="#FDD2A7"/>
<path d="M22.8691 132.235H1.64258V144.715H22.8691V132.235Z" stroke="#330E00" stroke-width="3" stroke-miterlimit="10" stroke-linecap="round" stroke-linejoin="round"/>
<path d="M17.163 155.464H7.34913C5.4431 155.464 3.89807 153.849 3.89807 151.857V144.715H20.6141V151.857C20.6137 153.849 19.0686 155.464 17.163 155.464Z" fill="#3BABFF"/>
<path d="M17.163 155.464H7.34913C5.44311 155.464 3.89807 153.849 3.89807 151.857V144.715H20.6141V151.857C20.6137 153.849 19.0686 155.464 17.163 155.464Z" stroke="#330E00" stroke-width="3" stroke-miterlimit="10" stroke-linecap="round" stroke-linejoin="round"/>
<path d="M20.6137 29.758H3.89771L12.2557 2.09863L20.6137 29.758Z" fill="#FDD2A7"/>
<path d="M20.6137 29.758H3.89771L12.2557 2.09863L20.6137 29.758Z" stroke="#330E00" stroke-width="3" stroke-miterlimit="10" stroke-linecap="round" stroke-linejoin="round"/>
<path d="M12.2557 2.09863L8.71509 13.8157H15.7963L12.2557 2.09863Z" fill="#330E00"/>
</svg>
