<svg width="97" height="94" viewBox="0 0 97 94" fill="none" xmlns="http://www.w3.org/2000/svg">
<g opacity="0.4">
<path opacity="0.4" d="M73.9098 35.5424C77.8392 35.3784 82.7347 34.4924 84.9886 32.28L54.3319 13.5367C53.1602 16.4107 54.3547 21.0201 55.8354 24.4918C56.3282 25.6468 45.3442 37.4437 43.1913 37.0523C35.5593 35.6644 27.9241 36.7312 21.9346 40.1904L73.0572 71.4465C73.862 64.8173 71.6981 57.7595 67.1943 51.7276C65.9241 50.0262 72.6025 35.5968 73.9098 35.5424Z" fill="#2B5621" stroke="#2B5621" stroke-width="3" stroke-miterlimit="10" stroke-linecap="round" stroke-linejoin="round"/>
<path opacity="0.4" d="M51.8715 58.1675L43.5344 53.0664L33.1433 77.2527L51.8715 58.1675Z" fill="#2B5621" stroke="#2B5621" stroke-width="3" stroke-miterlimit="10" stroke-linecap="round" stroke-linejoin="round"/>
</g>
<path d="M67.92 28.7323C71.8493 28.5712 76.7442 27.689 78.9963 25.479L48.3241 6.71972C47.1547 9.59193 48.3529 14.2007 49.8364 17.6724C50.3302 18.8274 39.3553 30.6126 37.2021 30.2197C29.5689 28.8268 21.9344 29.8877 15.9475 33.3416L67.0961 64.6243C67.8956 57.9978 65.726 50.9407 61.2173 44.9075C59.9452 43.2058 66.6125 28.786 67.92 28.7323Z" fill="#F42222"/>
<path d="M67.92 28.7323C71.8493 28.5712 76.7442 27.689 78.9963 25.479L48.3241 6.71972C47.1547 9.59193 48.3529 14.2007 49.8364 17.6724C50.3302 18.8274 39.3553 30.6126 37.2021 30.2197C29.5689 28.8268 21.9344 29.8877 15.9475 33.3416L67.0961 64.6243C67.8956 57.9978 65.726 50.9407 61.2173 44.9075C59.9452 43.2058 66.6125 28.786 67.92 28.7323Z" fill="#F42222"/>
<path d="M61.335 44.9879C60.0689 43.2931 66.7071 28.9325 68.009 28.879C71.9214 28.7185 76.7954 27.8399 79.0378 25.6389L76.5456 24.1144C74.3032 26.3154 69.4292 27.194 65.5168 27.3544C64.2151 27.4077 57.5763 41.7684 58.8428 43.4633C63.3325 49.472 65.4925 56.5 64.6964 63.0994L67.1886 64.6239C67.9847 58.0246 65.8244 50.9963 61.335 44.9879Z" fill="#F42222"/>
<path d="M60.2159 14.107C55.61 11.288 55.61 11.288 55.61 11.288C55.61 11.288 51.61 14.2034 55.1571 19.7401L42.9201 34.3938C42.9201 34.3938 32.4616 32.9345 26.7014 39.7624L32.7244 43.4488C32.7244 43.4488 37.5401 36.0425 45.2431 35.9928L56.8426 20.7717C56.8423 20.7715 56.5342 16.4199 60.2159 14.107Z" fill="#FF7676"/>
<path d="M45.8843 51.3521L37.5383 46.2441L27.1606 70.4268L45.8843 51.3521Z" fill="#E8E8E8"/>
<path d="M67.92 28.7323C71.8493 28.5712 76.7442 27.689 78.9963 25.479L48.3241 6.71972C47.1547 9.59193 48.3529 14.2007 49.8364 17.6724C50.3302 18.8274 39.3553 30.6126 37.2021 30.2197C29.5689 28.8268 21.9344 29.8877 15.9475 33.3416L67.0961 64.6243C67.8956 57.9978 65.726 50.9407 61.2173 44.9075C59.9452 43.2058 66.6125 28.786 67.92 28.7323Z" stroke="#102D3B" stroke-width="3" stroke-miterlimit="10" stroke-linecap="round" stroke-linejoin="round"/>
<path d="M45.8843 51.3521L37.5383 46.2441L27.1606 70.4268L45.8843 51.3521Z" stroke="#102D3B" stroke-width="3" stroke-miterlimit="10" stroke-linecap="round" stroke-linejoin="round"/>
</svg>
