<svg width="152" height="137" viewBox="0 0 152 137" fill="none" xmlns="http://www.w3.org/2000/svg">
<g filter="url(#filter0_d_0_1213)">
<path d="M37.1647 59.3764L42.0504 57.2508L51.1565 60.8098L47.411 57.5453L33.7474 14.4773L75.9223 35.7246L80.8359 50.0999L80.6823 52.3698L82.3613 52.8632L93.7515 9.66982L93.015 54.0257L96.2944 52.231L118.679 71.1206L70.202 75.1462L66.0309 79.4486L64.8226 77.4593L40.7475 62.5551L35.3343 71.5039L37.1647 59.3764Z" fill="#FF5A5A"/>
<path d="M42.0504 57.2508L37.1647 59.3764L35.3343 71.5039M42.0504 57.2508L39.0838 60.9394M42.0504 57.2508L51.1565 60.8098M35.3343 71.5039L39.0838 60.9394M35.3343 71.5039L40.7475 62.5551M39.0838 60.9394L40.7475 62.5551M40.7475 62.5551L64.8226 77.4593M64.9986 65.3928L62.3084 70.4234M64.9986 65.3928L60.2625 64.3687M64.9986 65.3928L70.6816 51.6323L71.4954 49.786M62.3084 70.4234L59.5207 72.3965L62.0505 73.0478M62.3084 70.4234L90.372 55.4371M80.8359 50.0999L75.9223 35.7246L33.7474 14.4773L47.411 57.5453L51.1565 60.8098M80.8359 50.0999L80.6823 52.3698M80.8359 50.0999L71.4954 49.786M60.2625 64.3687L69.4943 51.0375L71.4954 49.786M60.2625 64.3687L51.1565 60.8098M64.8226 77.4593L62.0505 73.0478M64.8226 77.4593L66.0309 79.4486L70.202 75.1462M62.0505 73.0478L70.202 75.1462M70.202 75.1462L118.679 71.1206L96.2944 52.231L93.015 54.0257M80.6823 52.3698L82.3613 52.8632M80.6823 52.3698L71.4954 49.786M93.015 54.0257L93.7515 9.66982L82.3613 52.8632M93.015 54.0257L90.372 55.4371M82.3613 52.8632L90.372 55.4371" stroke="black" stroke-width="1.5" stroke-linejoin="round"/>
</g>
<defs>
<filter id="filter0_d_0_1213" x="0.997314" y="0.919922" width="150.432" height="135.278" filterUnits="userSpaceOnUse" color-interpolation-filters="sRGB">
<feFlood flood-opacity="0" result="BackgroundImageFix"/>
<feColorMatrix in="SourceAlpha" type="matrix" values="0 0 0 0 0 0 0 0 0 0 0 0 0 0 0 0 0 0 127 0" result="hardAlpha"/>
<feOffset dy="24"/>
<feGaussianBlur stdDeviation="16"/>
<feColorMatrix type="matrix" values="0 0 0 0 0.1125 0 0 0 0 0.1125 0 0 0 0 0.1125 0 0 0 0.08 0"/>
<feBlend mode="multiply" in2="BackgroundImageFix" result="effect1_dropShadow_0_1213"/>
<feBlend mode="normal" in="SourceGraphic" in2="effect1_dropShadow_0_1213" result="shape"/>
</filter>
</defs>
</svg>
