<svg width="88" height="83" viewBox="0 0 88 83" fill="none" xmlns="http://www.w3.org/2000/svg">
<path d="M54.1304 2.16269C55.3915 0.813563 57.6512 1.7486 57.5903 3.5944L56.7542 28.9482C56.6992 30.6138 57.6827 32.1389 59.2226 32.7761L84.9403 43.4179C86.7946 44.1853 86.4897 46.9007 84.5113 47.2376L59.2096 51.5462C57.3362 51.8652 55.9459 53.4583 55.8832 55.3576L55.0894 79.4289C55.0262 81.3429 52.5684 82.0823 51.4597 80.5209L35.3966 57.8985C34.507 56.6456 32.9784 56.0131 31.4637 56.271L4.11217 60.9287C2.22431 61.2502 1.00763 58.9903 2.31538 57.5913L18.7624 39.9972C20.0602 38.609 20.202 36.4993 19.1018 34.9499L4.24243 14.0228C3.08055 12.3865 4.78349 10.2495 6.63786 11.0169L32.3555 21.6587C33.8954 22.2959 35.669 21.9116 36.807 20.6942L54.1304 2.16269Z" fill="white" stroke="black" stroke-width="2"/>
</svg>
