<svg width="76" height="74" viewBox="0 0 76 74" fill="none" xmlns="http://www.w3.org/2000/svg">
<path d="M48.8713 2.7871C50.0661 1.10838 52.6934 2.26421 52.4232 4.34978L50.3734 20.173C50.0297 22.8268 52.2487 25.1636 54.831 24.8673L71.138 22.9956C73.2179 22.7569 74.2528 25.6045 72.4995 26.7417L60.4512 34.5565C58.0858 36.0908 58.0942 39.671 60.4672 41.343L73.2676 50.3624C75.0627 51.6273 73.9569 54.4684 71.8461 54.0148L56.7941 50.7806C54.0037 50.181 51.6184 52.7081 52.2726 55.5708L55.6045 70.1521C56.0893 72.274 53.4645 73.5115 52.1514 71.78L41.8563 58.2048C40.226 56.0551 37.1027 56.0416 35.5823 58.1777L26.5167 70.9143C25.3219 72.593 22.6946 71.4372 22.9648 69.3516L25.0146 53.5285C25.3583 50.8747 23.1393 48.5378 20.557 48.8342L4.25004 50.7058C2.17015 50.9445 1.1352 48.097 2.88853 46.9597L14.9368 39.1449C17.3023 37.6106 17.2938 34.0305 14.9208 32.3584L2.12043 23.339C0.32534 22.0741 1.43109 19.233 3.54192 19.6866L18.5939 22.9208C21.3843 23.5204 23.7696 20.9934 23.1154 18.1306L19.7836 3.54932C19.2987 1.42738 21.9235 0.189935 23.2366 1.92141L33.5317 15.4966C35.162 17.6463 38.2853 17.6598 39.8058 15.5237L48.8713 2.7871Z" fill="#F75734" stroke="black" stroke-width="2"/>
</svg>
