<svg width="17" height="17" viewBox="0 0 17 17" fill="none" xmlns="http://www.w3.org/2000/svg">
<path d="M10.228 1.50422C10.8492 0.564504 12.3006 1.20308 12.1156 2.33467C11.8795 3.77902 13.1396 5.05637 14.5343 4.79424C15.6312 4.58809 16.2721 6.06233 15.3942 6.72765L15.1712 6.89663C14.047 7.74856 14.0879 9.50728 15.2456 10.3794C16.209 11.1052 15.6078 12.6501 14.4437 12.4398C13.0449 12.1872 11.8471 13.401 12.0764 14.8484L12.1219 15.1354C12.3009 16.2658 10.8677 16.8275 10.2285 15.8576C9.41586 14.6243 7.67525 14.5815 6.88245 15.7809C6.26131 16.7207 4.80983 16.0821 4.99484 14.9505C5.23098 13.5062 3.97084 12.2288 2.57615 12.4909C1.47927 12.6971 0.83843 11.2228 1.71633 10.5575L1.93931 10.3885C3.06344 9.53661 3.02254 7.77788 1.86485 6.90576C0.901451 6.18 1.50271 4.63511 2.66676 4.84532C4.06556 5.09793 5.26334 3.88416 5.03407 2.4368L4.98859 2.14972C4.80954 1.01939 6.24278 0.457644 6.88194 1.42757C7.69463 2.66083 9.43524 2.70366 10.228 1.50422Z" fill="#A259FF" stroke="black"/>
</svg>
