<svg width="20" height="21" viewBox="0 0 20 21" fill="none" xmlns="http://www.w3.org/2000/svg">
<path d="M10.2069 2.16485C11.7279 0.328332 14.7005 1.63612 14.5562 4.0783L14.5066 4.91715C14.4163 6.44693 15.2918 7.89352 16.6769 8.50288L17.3941 8.81843C19.6154 9.79568 19.4063 13.0976 17.0896 13.6269L16.3933 13.786C14.9381 14.1185 13.8879 15.3911 13.7968 16.9322L13.7515 17.6984C13.607 20.1448 10.505 20.8775 9.22115 18.7684L8.7725 18.0314C7.97333 16.7186 6.46445 16.0547 5.02646 16.3833L4.21917 16.5678C1.90899 17.0957 0.200926 14.2468 1.72456 12.4071L2.20175 11.8309C3.16152 10.672 3.26409 8.98257 2.45533 7.654L2.06835 7.01829C0.780851 4.90328 2.8273 2.40976 5.04857 3.38701L5.7658 3.70255C7.15087 4.31192 8.7318 3.94605 9.68453 2.79566L10.2069 2.16485Z" fill="white" stroke="black"/>
</svg>
